<?xml version="1.0" encoding="UTF-8"?>
<svg id="Capa_1" data-name="Capa 1" xmlns="http://www.w3.org/2000/svg" viewBox="0 0 290.28 75.45">
  <defs>
    <style>
      .cls-1 {
        fill: #fff;
      }
    </style>
  </defs>
  <g>
    <path class="cls-1" d="M106.14,42.79c-.34-.34-.52-.89-.52-1.65V7.64c0-.76.17-1.3.52-1.65.34-.34.89-.51,1.65-.51h18.96c.58,0,.99.22,1.24.65.25.43.38,1.12.38,2.05v1.67c0,.94-.12,1.62-.38,2.05-.25.43-.67.65-1.24.65h-12.81v7.84h11.35c.57,0,.99.22,1.24.65.25.43.38,1.12.38,2.05v1.68c0,.94-.13,1.62-.38,2.05-.25.43-.67.65-1.24.65h-11.35v8.75h12.86c.57,0,.99.22,1.24.65.25.43.38,1.12.38,2.05v1.67c0,.94-.13,1.62-.38,2.05-.25.43-.67.65-1.24.65h-19.02c-.76,0-1.3-.17-1.65-.51"/>
    <path class="cls-1" d="M135.28,42.7c-1.87-.68-2.81-1.57-2.81-2.65,0-.72.34-1.59,1.03-2.62.68-1.03,1.3-1.54,1.84-1.54.29,0,.68.14,1.19.43.76.32,1.45.59,2.08.78.63.2,1.36.3,2.19.3,1.08,0,1.9-.2,2.46-.6.56-.39.83-.95.83-1.67s-.3-1.28-.92-1.67c-.61-.4-1.76-.95-3.46-1.67-1.26-.54-2.34-1.09-3.25-1.65-.9-.56-1.68-1.38-2.35-2.48-.67-1.1-1-2.49-1-4.19,0-2.78.88-4.94,2.64-6.51,1.76-1.57,4.16-2.35,7.19-2.35,1.91,0,3.73.27,5.48.81,1.75.54,2.62,1.31,2.62,2.32,0,.69-.27,1.57-.81,2.65-.54,1.08-1.05,1.62-1.51,1.62-.15,0-.68-.19-1.62-.57-.94-.38-2-.57-3.19-.57-1.91,0-2.86.67-2.86,2,0,.79.32,1.4.97,1.81.65.42,1.82.93,3.51,1.54,1.87.68,3.42,1.63,4.65,2.84,1.22,1.21,1.84,3.02,1.84,5.43,0,2.81-.94,5.05-2.81,6.73-1.88,1.67-4.47,2.51-7.78,2.51-2.24,0-4.29-.34-6.16-1.03"/>
    <path class="cls-1" d="M158.89,40.19c-2.23-2.36-3.35-5.97-3.35-10.83s1.13-8.58,3.38-11.05c2.25-2.47,5.75-3.7,10.51-3.7,2.2,0,4.24.33,6.13,1,1.89.67,2.84,1.58,2.84,2.73,0,.54-.37,1.37-1.11,2.48-.74,1.12-1.32,1.67-1.75,1.67-.14,0-.47-.13-.97-.38-.72-.36-1.43-.65-2.13-.86-.7-.22-1.56-.33-2.57-.33-2.13,0-3.67.67-4.65,2-.97,1.33-1.46,3.4-1.46,6.21s.46,4.89,1.38,6.24c.92,1.35,2.39,2.03,4.41,2.03.93,0,1.77-.1,2.51-.3.74-.2,1.35-.39,1.84-.57.48-.18.8-.31.95-.38.58-.22.9-.32.97-.32.36,0,.76.26,1.21.78.45.52.83,1.12,1.14,1.78.31.67.46,1.18.46,1.54,0,.9-.6,1.64-1.81,2.22-1.21.57-2.57.98-4.08,1.21-1.51.24-2.7.35-3.57.35-4.61,0-8.03-1.18-10.27-3.54"/>
    <path class="cls-1" d="M185.09,39.98c-2.23-2.5-3.35-6.11-3.35-10.83s1.12-8.32,3.35-10.8c2.23-2.48,5.49-3.73,9.78-3.73s7.54,1.24,9.75,3.73c2.21,2.48,3.32,6.09,3.32,10.8s-1.11,8.33-3.32,10.83c-2.22,2.5-5.47,3.75-9.75,3.75s-7.54-1.25-9.78-3.75M198.63,35.33c.81-1.38,1.21-3.45,1.21-6.19s-.4-4.79-1.21-6.16c-.81-1.37-2.06-2.05-3.76-2.05s-2.95.69-3.78,2.05c-.83,1.37-1.24,3.42-1.24,6.16,0,5.51,1.67,8.27,5.02,8.27,1.69,0,2.95-.69,3.76-2.08"/>
    <path class="cls-1" d="M224.24,42.59c-1.28-.75-2.25-1.73-2.89-2.92-.15.76-.39,1.53-.76,2.32-.25.54-.59.91-1.03,1.11-.43.2-1.06.3-1.89.3h-.65c-2.16,0-3.24-.58-3.24-1.73V4.29c0-1.15,1.08-1.73,3.24-1.73h1.51c2.16,0,3.24.58,3.24,1.73v12c1.55-1.11,3.38-1.67,5.51-1.67,3.6,0,6.4,1.31,8.4,3.92,2,2.61,3,6.15,3,10.61,0,3.06-.43,5.69-1.29,7.89-.87,2.2-2.07,3.86-3.59,5-1.53,1.14-3.27,1.7-5.22,1.7-1.62,0-3.07-.38-4.35-1.13M230.58,29.14c0-5.48-1.68-8.21-5.02-8.21-1.29,0-2.56.34-3.78,1.03v12.05c1.22,2.13,2.7,3.19,4.43,3.19,2.92,0,4.37-2.68,4.37-8.05"/>
    <path class="cls-1" d="M245.14,41.57c-1.28-1.44-1.92-3.35-1.92-5.73,0-2.88,1.05-5.28,3.16-7.19,2.11-1.91,6.22-2.86,12.34-2.86v-1.78c0-1.04-.33-1.82-1-2.32-.67-.5-1.74-.76-3.21-.76-1.23,0-2.3.13-3.21.38-.92.25-1.74.54-2.46.87-.72.32-1.13.49-1.24.49-.36,0-.76-.27-1.19-.81-.44-.54-.81-1.16-1.14-1.86-.32-.7-.49-1.25-.49-1.65,0-.61.45-1.21,1.35-1.78.9-.58,2.14-1.04,3.73-1.41,1.58-.36,3.33-.54,5.24-.54,4.07,0,7.02.8,8.86,2.4,1.84,1.6,2.76,3.81,2.76,6.62v10.16c0,1.66.04,2.92.14,3.78.09.86.21,1.82.35,2.86.11.47.16.87.16,1.19,0,.58-.73,1.01-2.19,1.3-1.46.29-2.75.43-3.86.43-.65,0-1.1-.26-1.35-.78-.25-.52-.44-1.09-.57-1.7-.13-.61-.21-1.03-.24-1.24-.22.39-.65.91-1.3,1.54-.65.63-1.55,1.22-2.7,1.76-1.15.54-2.47.81-3.94.81-2.77,0-4.8-.72-6.08-2.16M256.73,36.44c.9-.65,1.57-1.46,2-2.43v-2.97c-5.04,0-7.56,1.33-7.56,4,0,.72.23,1.3.7,1.73.47.43,1.14.65,2,.65,1.01,0,1.97-.33,2.86-.97"/>
    <path class="cls-1" d="M273.75,41.68v-17.13c0-1.58-.05-2.8-.14-3.65-.09-.85-.21-1.79-.35-2.84-.11-.51-.16-.88-.16-1.13,0-.57.73-1.01,2.19-1.3,1.46-.29,2.75-.43,3.86-.43.65,0,1.1.24,1.35.73.25.49.44,1.02.57,1.59.12.58.21.97.24,1.19.68-1.26,1.49-2.26,2.4-3,.92-.74,2.08-1.11,3.48-1.11,1.22,0,2.05.24,2.46.73.41.48.62,1.22.62,2.19,0,.76-.16,1.7-.49,2.84-.32,1.14-.72,1.7-1.19,1.7-.22,0-.59-.07-1.13-.22-.54-.14-1.01-.22-1.41-.22-.97,0-1.83.28-2.56.84-.74.56-1.32,1.18-1.76,1.86v17.34c0,1.15-1.08,1.73-3.24,1.73h-1.51c-2.16,0-3.24-.58-3.24-1.73"/>
    <path class="cls-1" d="M125.98,72.35c-.38,0-.57-.19-.57-.57v-14.83c0-.36.18-.54.54-.54h4.91c2.28,0,3.97.45,5.07,1.34,1.1.89,1.65,2.33,1.65,4.32s-.55,3.45-1.65,4.34c-1.1.88-2.79,1.32-5.07,1.32h-2.31v4.05c0,.38-.19.57-.57.57h-2.02ZM130.85,65.02c1.25,0,2.16-.23,2.72-.68.56-.45.84-1.21.84-2.26s-.28-1.81-.84-2.26c-.56-.45-1.46-.68-2.72-.68h-2.29v5.89h2.29Z"/>
    <path class="cls-1" d="M149.8,56.41c2.23,0,3.89.43,4.98,1.28,1.09.85,1.63,2.22,1.63,4.09,0,2.66-1.3,4.26-3.89,4.82l3.85,5.05c.14.17.17.32.1.48-.07.15-.22.23-.44.23h-2.15c-.3,0-.57-.15-.79-.45l-3.67-4.87h-2.11v4.75c0,.38-.19.57-.57.57h-2.02c-.38,0-.57-.19-.57-.57v-14.83c0-.36.19-.54.57-.54h5.07ZM149.73,64.4c1.27,0,2.17-.21,2.71-.63s.8-1.09.8-1.99c0-.95-.27-1.63-.8-2.04s-1.43-.61-2.68-.61h-2.45v5.28h2.42Z"/>
    <path class="cls-1" d="M174.61,58.22c1.23,1.39,1.85,3.44,1.85,6.16s-.62,4.77-1.85,6.15c-1.23,1.38-2.98,2.07-5.24,2.07s-3.99-.69-5.21-2.08c-1.22-1.39-1.83-3.43-1.83-6.14s.62-4.77,1.85-6.16c1.23-1.39,2.97-2.08,5.22-2.08s3.99.69,5.22,2.08ZM173.21,64.38c0-3.65-1.28-5.48-3.83-5.48s-3.85,1.83-3.85,5.48,1.28,5.46,3.85,5.46,3.83-1.82,3.83-5.46Z"/>
    <path class="cls-1" d="M195.22,62.86c.38,0,.57.19.57.57v7.25c0,.32-.17.58-.5.79-1.27.75-2.99,1.13-5.16,1.13-5.16,0-7.74-2.75-7.74-8.24s2.65-8.22,7.95-8.22c1.84,0,3.37.36,4.57,1.09.35.18.46.42.34.7l-.57,1.4c-.14.35-.39.44-.77.27-1.04-.44-2.1-.66-3.17-.66-1.81,0-3.12.43-3.93,1.28-.81.85-1.21,2.23-1.21,4.13s.4,3.3,1.19,4.16c.79.85,2.03,1.28,3.7,1.28.95,0,1.76-.15,2.42-.45v-4.01h-2.47c-.38,0-.57-.17-.57-.52v-1.38c0-.38.19-.57.57-.57h4.78Z"/>
    <path class="cls-1" d="M208.33,56.41c2.23,0,3.89.43,4.98,1.28,1.09.85,1.63,2.22,1.63,4.09,0,2.66-1.3,4.26-3.89,4.82l3.85,5.05c.14.17.17.32.1.48-.07.15-.22.23-.44.23h-2.15c-.3,0-.57-.15-.79-.45l-3.67-4.87h-2.11v4.75c0,.38-.19.57-.57.57h-2.02c-.38,0-.57-.19-.57-.57v-14.83c0-.36.19-.54.57-.54h5.07ZM208.26,64.4c1.27,0,2.17-.21,2.71-.63.54-.42.8-1.09.8-1.99,0-.95-.27-1.63-.8-2.04-.54-.41-1.43-.61-2.68-.61h-2.45v5.28h2.42Z"/>
    <path class="cls-1" d="M224.58,65.54v4.1h6.43c.38,0,.57.18.57.54v1.61c0,.38-.19.57-.57.57h-8.99c-.38,0-.57-.19-.57-.57v-14.83c0-.36.18-.54.54-.54h8.92c.38,0,.57.18.57.54v1.61c0,.38-.19.57-.57.57h-6.34v3.78h6.05c.36,0,.54.19.54.57v1.49c0,.38-.18.57-.54.57h-6.05Z"/>
    <path class="cls-1" d="M246.98,71.42c-1.1.75-2.57,1.13-4.42,1.13-2.1,0-3.74-.29-4.91-.88-.33-.17-.45-.39-.34-.68l.54-1.45c.12-.36.35-.48.68-.34,1.09.45,2.29.68,3.6.68,1.03,0,1.84-.16,2.43-.48.6-.32.89-.79.89-1.43,0-.26-.06-.49-.19-.71-.13-.22-.26-.4-.41-.53-.14-.14-.39-.29-.74-.48-.35-.18-.62-.31-.83-.4s-.55-.22-1.03-.4c-.62-.23-1.1-.42-1.45-.57s-.76-.37-1.23-.67c-.48-.29-.84-.6-1.09-.91-.25-.31-.47-.71-.66-1.19-.19-.48-.28-1.03-.28-1.63,0-2.9,1.92-4.35,5.75-4.35,1.74,0,3.18.26,4.32.79.33.17.45.39.34.68l-.52,1.4c-.14.33-.38.44-.72.32-.86-.33-1.9-.5-3.12-.5-1.92,0-2.88.57-2.88,1.72,0,.68.43,1.24,1.29,1.68.27.14.85.39,1.74.75.5.2.82.32.95.38.14.06.42.19.85.39.43.2.72.35.86.45s.37.27.69.49.54.43.66.62c.12.2.26.43.43.71.17.28.28.58.34.91.06.32.09.68.09,1.08,0,1.51-.55,2.64-1.65,3.4Z"/>
    <path class="cls-1" d="M262.01,56.41c.33,0,.56.17.68.52l5.28,14.79c.06.18.05.33-.02.45-.08.12-.2.18-.39.18h-2.2c-.33,0-.55-.17-.66-.5l-1.04-2.97h-5.89l-1.04,2.97c-.11.33-.32.5-.63.5h-2.2c-.2,0-.34-.06-.42-.18-.08-.12-.09-.27-.01-.45l5.28-14.79c.12-.35.35-.52.68-.52h2.58ZM262.96,66.22l-2.2-6.68h-.07l-2.24,6.68h4.51Z"/>
  </g>
  <g>
    <path class="cls-1" d="M20.27,48.27c-.21-.3-.42-.58-.62-.89-.55-.83-1.05-1.66-1.54-2.53l-.04-.09c-.12-.22-.5-.99-.99-2.22-.11-.28-.24-.6-.37-.94-.11-.31-.23-.63-.34-.96-.46-1.32-.88-2.75-1.25-4.25l-.38-1.62c-.07-.31-.13-.61-.19-.92-.73-3.59-1.15-7.42-1.27-11.38v-.19s0-.06-.01-.09c-1.02.19-2.23.34-3.57.63l-1.99.35c-1.89.33-2.74.57-4,.91,0,0-.73.19-1.36.52-.63.33-.99.79-1.24,1.18-.16.26-.23.82-.06,2.02.18,1.21.34,2.41,2.26,5.95,2,4.09,5.81,8.47,6.85,9.78,3.56,3.63,7.42,6.12,13.07,8.2-.79-.78-1.56-1.63-2.27-2.55-.23-.3-.46-.6-.69-.92Z"/>
    <path class="cls-1" d="M24.56,38.33c-.02-.38-.04-.75-.06-1.14-.02-1.06,0-2.08.05-3.12v-.07c.03-.28.11-1.18.36-2.55.05-.32.12-.67.2-1.05.07-.33.15-.68.23-1.04.32-1.44.74-2.95,1.23-4.5l.55-1.66c.12-.32.22-.62.33-.93,1.19-3.25,2.71-6.52,4.49-9.75l-.08-.03c-1.27-.54-3.22-1.26-5.8-2.14l-1.53-.58c-1.67-.64-2.88-1.1-4.1-1.44,0,0-.82-.29-1.26-.28-.44.01-1.07-.03-1.64.32-.26.13-.97.81-1.19,1.76-.11.64-.79,3.71-.68,7.77,0,.17.11,2.86.11,3.54v.18c0,.22,0,.44,0,.65,0,.23.01.45.02.66v.2c.11,3.74.51,7.35,1.2,10.72.06.29.12.57.18.85l.36,1.54c.35,1.38.74,2.72,1.16,3.94.11.32.22.62.32.9.11.3.23.59.33.85.44,1.1.77,1.77.9,2h0c.44.81.89,1.55,1.39,2.3.19.27.37.54.56.81.2.28.41.55.61.82,1.94,2.49,4.16,4.39,6.64,5.69.45.1.9.19,1.35.28-3.06-3.28-5.51-7.87-6.14-14.28-.04-.39-.07-.79-.1-1.2Z"/>
    <path class="cls-1" d="M36.44,32.9c.14-.34.3-.68.46-1.02.15-.32.3-.63.46-.94.45-.87.92-1.69,1.45-2.5.14-.21.62-.92,1.48-1.97.19-.23.4-.49.63-.76.21-.24.43-.48.66-.74.91-1.02,1.94-2.05,3.04-3.07l1.21-1.08c.23-.2.46-.4.69-.6,2.73-2.31,5.81-4.47,9.14-6.43l.19-.11-.05-.07c-.13-.2-.26-.41-.4-.62-.14-.21-.28-.41-.41-.61l-.15-.22c-.83-1.23-2.16-3.03-3.97-5.35l-1.03-1.41c-1.13-1.57-1.95-2.7-2.85-3.73,0,0-.72-.81-1.08-1.03-.36-.23-.79-.66-1.56-.64h0c-.47.01-1.55.32-2.07.93-.52.6-2.63,3.04-4.82,6.83-.08.15-.17.3-.25.46l-.19.35c-.66.95-1.19,1.75-1.58,2.39l-.08.14c-.13.21-.25.42-.37.62-.12.21-.23.4-.34.59l-.12.22c-2,3.49-3.66,7.02-4.94,10.52-.11.3-.22.6-.32.89l-.54,1.62c-.47,1.47-.87,2.92-1.17,4.3-.08.35-.15.69-.22,1.01-.07.35-.13.68-.19.98-.23,1.32-.31,2.14-.32,2.37-.05.98-.07,1.94-.04,2.93.01.36.03.71.05,1.07.02.37.05.74.09,1.11.72,7.35,4.09,12.07,7.87,15.09,1.27.13,2.54.19,3.82.21-3.41-4.91-6.19-12.39-2.18-21.71Z"/>
    <path class="cls-1" d="M72.74,16.99c-.25-1.85-.42-3.08-.71-4.32l-.17-.86c-.14-.58-.51-1.39-1.26-1.74-.51-.3-1.36-.37-2.12-.1-.75.27-3.56,1.25-7.06,3.29-.13.07-.26.16-.39.24l-.35.21c-1,.47-1.78.87-2.38,1.2l-.24.13c-.16.09-.32.18-.48.27-.18.1-.34.2-.5.29l-.25.15c-3.22,1.89-6.19,3.98-8.82,6.21-.23.19-.44.38-.66.57l-1.18,1.05c-1.05.97-2.02,1.95-2.89,2.92-.23.25-.44.49-.64.71-.21.24-.41.49-.59.7-.81.99-1.25,1.63-1.32,1.75-.49.76-.92,1.52-1.34,2.32-.15.29-.29.59-.44.88-.15.31-.29.62-.42.93-3.95,9.19-.55,16.41,2.9,20.79.66-.03,1.32-.07,1.98-.12-.29-.63-.54-1.28-.77-1.98l-.02-.07c-1.4-5.5-2.26-15.83,7.75-23.25.28-.21.56-.41.86-.61l.07-.05c.25-.17.5-.33.75-.5.77-.48,1.54-.92,2.36-1.35l.07-.03c.22-.11.93-.44,2.08-.87.26-.1.56-.2.88-.31.28-.09.58-.19.89-.29,1.23-.39,2.55-.75,3.93-1.06l1.5-.31c.28-.05.56-.1.84-.16,2.86-.51,5.89-.8,9-.88.01,0,.03,0,.04,0-.16-1.15-.39-2.53-.67-4.15l-.22-1.59Z"/>
    <path class="cls-1" d="M59.76,50.51c.38-.15.76-.34,1.16-.53,1.15-.55,2.34-1.11,3.52-1.14.41-.01.81.05,1.17.17.91.31,1.65.75,2.19,1.28,4.51-2.99,7.69-7.16,10.27-10.54,2.6-3.4,4.45-5.95,6.74-6.01.46-.01.99.09,1.42.28.26.11.45.34.67.49l.44-1.08c.67-1.63,1.11-2.71,1.46-3.85,0,0,.25-.63.3-1.08.05-.45-.09-1.22-.26-1.59-.13-.24-.73-.98-1.59-1.12-.86-.14-3.48-.67-7.27-.66,0,0-2.68-.12-3.32-.13h-.09c-.23,0-.46-.01-.68-.01-.22,0-.42,0-.62,0h-.2c-.49,0-.96.01-1.43.02-3,.08-5.91.37-8.66.85-.27.05-.54.1-.8.15l-1.46.3c-1.3.29-2.55.63-3.72,1-.3.09-.59.19-.85.28-.29.1-.57.2-.81.29-1.08.4-1.72.71-1.89.79-.76.4-1.48.81-2.18,1.25-.24.15-.47.31-.7.47l-.07.04c-.26.18-.53.37-.78.56-8.92,6.61-8.17,15.87-6.91,20.82.29.87.63,1.67,1.01,2.4,4.65-.59,9.32-1.83,13.94-3.71Z"/>
    <path class="cls-1" d="M85.91,35.77c-4.1-1.86-6.42,9.56-16.72,15.98,1.48,3.32.9,5.93-5.06,9.37-2.79,1.62-6.52,3.18-9.12,3.93-1.79.51-2.9.92-3.2.3-.29-.6-.47-1.2,1.83-1.91,5.16-1.59,9.72-4.12,9.72-4.12,3.29-1.87,4.33-3.11,4.22-5.49-.07-1.45-1.27-2.39-2.28-2.75-1.45-.52-3.64.84-5.34,1.54-7.88,3.24-21.72,7.01-37.22,1.28-9.64-3.56-14.15-8.17-20.61-17.47-1.23-1.71-2.26-.77-1.89,1.07,3.58,16.53,16.86,34.72,37.36,37.26,26.27,3.25,39.94-13.95,44.06-20.99,4.11-7.04,9.14-15.77,4.24-18"/>
  </g>
</svg>