<?xml version="1.0" encoding="UTF-8"?>
<svg id="Capa_1" data-name="Capa 1" xmlns="http://www.w3.org/2000/svg" viewBox="0 0 97.9 97.9">
  <defs>
    <style>
      .cls-1 {
        fill: #fff;
      }
    </style>
  </defs>
  <path class="cls-1" d="M32.6,57.46c-.41,0-.73.06-1.01.15,3.44,2.42,5.03,3.33,10.62,5.03.32.1.65.17.97.24-4.23-3.14-8.64-5.42-10.58-5.42Z"/>
  <path class="cls-1" d="M49.32,24.14c-14.26,0-25.82,11.34-25.82,25.33s11.56,25.33,25.82,25.33,25.82-11.34,25.82-25.33-11.56-25.33-25.82-25.33ZM55.74,27.43c.37.11,1.83.44,4.98,2.67,1.92,1.37,2.65,2,2.67,2.28.03.49-.51.12-.69,0-.69-.52-.79-.71-1.78-1.38-2.09-1.41-2.99-2.05-4.56-2.85-1.71-.88-3.5-1.33-3.5-1.33,0,0,1.29.14,2.88.62ZM50.04,27.26c.78.23,3.83.91,10.41,5.59,4.02,2.86,5.53,4.18,5.57,4.77.07,1.03-1.07.26-1.44-.02-1.45-1.09-1.65-1.48-3.73-2.88-4.38-2.95-6.25-4.62-9.54-5.96-3.72-1.52-6.53-1.24-6.53-1.24,0,0,1.92-1.25,5.25-.26ZM46.53,28.69c1.03.31,5.05,1.2,13.72,7.37,5.3,3.77,7.3,5.51,7.35,6.29.09,1.36-1.8.34-2.28-.02-1.91-1.44-1.99-1.75-4.53-3.8-5.71-4.59-7.68-5.53-12.58-7.87-4.78-2.28-8.62-1.64-8.62-1.64,0,0,2.53-1.65,6.93-.34ZM38.96,30.52c.96,0,5.17.02,14.24,5.32,5.54,3.24,7.1,4.25,7.34,5.38.42,1.97-1.47,1.29-1.97.97-2.02-1.29-1.22-.93-4.77-3.4-5.89-4.11-8.71-4.9-12.88-6.09-4.85-1.38-8.08.05-8.08.05,0,0,1.99-2.23,6.12-2.23ZM33.51,34.84c1.06-.27,7.37-1.13,18.23,5.66,11.55,7.22,14.29,11.38,14.29,11.38l.67.74c.51,3.61-2.58,1.36-2.58,1.36,0,0-4.31-5.32-11.65-9.89-7.81-4.85-11.43-6.86-17.07-7.27-4.67-.34-7.18,2.38-7.18,2.38,0,0,1.19-3.31,5.3-4.37ZM28.51,40.23c.85-.82,6.96-2.32,18.01,4.13,6.75,3.94,8.65,5.08,8.95,6.46.51,2.4-1.85,1.66-2.4,1.18q-1.77-1.55-5.81-4.05c-6.67-4.13-8.97-5.2-13.92-5.93-5.42-.8-6.68,2.7-6.68,2.7,0,0-.14-2.57,1.86-4.5ZM66.12,65.16c-6.39,6.39-12.76,7.7-18.55,7.12-4.16-.42-9.48-1.85-14.1-5.94-4.04-3.58-4.93-5.91-5.86-7.58-.28-.51-3-5.24-.02-3.85-.27-1.62-.35-4.29,1.93-4.69,1.16-.2,8.54.07,18.5,8.12,2.09,1.69,3.63,2.89,4.81,3.82,1.09-.35,2.09-.74,3-1.11-1.98-1.97-5.18-4.82-9.37-7.43-7.81-4.85-10.84-6.24-16.49-6.24-2.39,0-3.09,2.97-3.27,4.38-.03,1.08-.1.81,0,0,0-.25.01-.55.01-.96,0-4.13,1.03-4.64,1.81-5.42.77-.77,6.35-2.14,17.21,4.64,6.86,4.28,10.83,7.74,12.94,9.85.44-.17.82-.29,1.13-.34,2.49-.41,2.91,1.35,1.77,2.7-.19.22-.49.45-.82.67-.02,1.61-1.12,1.38-1.89,1.02-1.04.47-2.13.89-3,1.21.06.16.1.32.11.48.14,2.37-1.85,1.37-2.48.86-.32.5-.15.96,1.02.85,2.18-.21,8.38-3.11,9.25-5.09.73-1.66.1-3.01.1-3.01,0,0,5.33-4.83,6.55-6.55,1.25-1.77,2.74-.57,2.29,1.14-.47,1.78-.64,5.42-6.55,11.33Z"/>
  <path class="cls-1" d="M31.55,55.18c.78-.23,6.37.94,13.27,6.52.72.59,1.33,1.08,1.89,1.54.92-.01,1.82-.1,2.7-.24-.35-.29-.75-.61-1.22-.99-6.8-5.51-11.26-8.43-15.22-9.14-4.17-.75-5.05.94-5.18,2.17.39.2.85.48,1.44.89.32.23.62.44.91.65.19-.62.59-1.16,1.41-1.4Z"/>
  <path class="cls-1" d="M71.68,51.82c.75,0,1.28.9.98,2.01-.47,1.78-.64,5.42-6.55,11.33-5.51,5.51-11.02,7.25-16.14,7.25-.81,0-1.62-.04-2.41-.12-4.16-.42-9.48-1.85-14.1-5.94-4.04-3.58-4.93-5.91-5.86-7.58-.25-.44-2.34-4.1-.9-4.1.45,0,1.24.35,2.53,1.26,5.34,3.77,6.26,4.66,12.99,6.7,1.45.44,2.89.62,4.29.62,6.03,0,11.25-3.36,13.28-3.7.25-.04.48-.06.69-.06,1.87,0,2.1,1.55,1.07,2.76-1.14,1.35-5.51,2.81-6.86,3.33-1.27.49-2.08,1.78-.54,1.78.1,0,.21,0,.33-.02,2.18-.21,8.38-3.11,9.25-5.09.73-1.66.1-3.01.1-3.01,0,0,5.33-4.83,6.55-6.55.43-.62.9-.87,1.3-.87M71.68,50.21h0c-.57,0-1.67.2-2.62,1.56-.81,1.14-4.3,4.46-6.31,6.28l-.35.32c-.53-.32-1.18-.49-1.93-.49-.3,0-.63.03-.96.08-.82.14-1.83.56-3.11,1.11-2.56,1.09-6.08,2.57-9.9,2.57-1.33,0-2.61-.19-3.82-.55-5.93-1.8-7.06-2.6-11.29-5.6-.39-.27-.8-.57-1.24-.88-1.55-1.09-2.58-1.56-3.46-1.56-.78,0-1.44.37-1.81,1-.65,1.11-.3,2.63,1.27,5.44l.03.06c.12.21.23.43.35.66.89,1.71,2.11,4.04,5.85,7.35,4.03,3.57,9.22,5.76,15.01,6.34.87.09,1.73.13,2.57.13,6.44,0,12.09-2.53,17.29-7.72,5.53-5.53,6.37-9.35,6.81-11.4.06-.25.1-.47.15-.65.3-1.12.12-2.22-.5-3.02-.5-.65-1.25-1.03-2.05-1.03h0Z"/>
  <path class="cls-1" d="M85.64,24.53c-.34-.4-.58-.67-.7-.84l-.36-.58c-.08-.04-.13-.07-.15-.11l-.02-.12-.12-.06c-.12-.17-.27-.39-.43-.68-.21-.28-.51-.31-.92-.09l-1.37,1.02c-.4.3-.94.67-1.6,1.12-.04.08-.15.21-.34.4-.41.24-.65.37-.71.39-.14.16-.27.28-.38.36l-.55.41c-.27.2-.59.42-.95.64l-.24.25c-.28.16-.49.29-.62.39l-.38.36c-.08.01-.14.03-.18.06l-.24.25c-.1.07-.19.11-.26.12l-.05.11c-.29.16-.51.31-.68.43l-.46.35c-.21.16-.36.32-.43.47l-.31.16-1.33.99-.5.3c-.17.41-.23.65-.18.71l.92,1.23c.25.34.58.36.98.07l3.49-2.6.47.64c.3.4.26.86-.12,1.38l-.05.04c-.28.21-.68.49-1.22.84-.04.08-.07.13-.11.15-.08,0-.16.05-.26.12l-.32.24-.29.29s-.05-.04-.08-.01l-.19.22c-.24.13-.37.2-.4.23-.28.26-.33.51-.15.75l.85,1.15c.21.29.51.33.88.13l2.79-2.08c.68-.51,1.15-1.16,1.4-1.96l.05-.04c.79.02,1.55-.24,2.27-.77l2.8-2.09c.64-.48,1.1-1.2,1.38-2.16,0-1.14-.2-1.99-.61-2.54ZM83.41,27.19c-.44.33-1.12.81-2.05,1.45l-.2.22c-.14.05-.27.13-.4.22l-.51.38c-.54.16-.92.09-1.15-.22l-.17-.23c-.07-.1-.15-.3-.24-.6l4.26-3.18.44.6c.3.4.3.85,0,1.35Z"/>
  <path class="cls-1" d="M74.66,13.56c-.47-.27-.72-.39-.74-.36-.27-.18-.59-.12-.98.18l-4.98,4.72c-.57.48-.94.85-1.11,1.09-1.51,1.4-2.33,2.19-2.46,2.38l-2.45,2.24c-.06.38,0,.63.19.76l1.26.86c.35.23.86-.03,1.54-.8l2.62,1.78c-.11.16-.13.29-.05.39-.35.7-.38,1.16-.08,1.36l1.17.79c.41.23.72.2.91-.09.16-.23,2-4.76,5.52-13.58.46-.68.34-1.26-.38-1.74ZM70.23,20c-.03.33-.47,1.45-1.3,3.37l-.33.48c-.6-.31-.99-.53-1.19-.66l-.05-.03-.37-.39-.05-.03,3.35-3.26.05.03c.07.05.03.21-.12.49Z"/>
  <path class="cls-1" d="M18.46,17.43c.9-.57,1.64-.87,2.21-.9,1.14.02,2.06.42,2.78,1.21l.99,1.09c.21.35.19.63-.04.84l-1.09.99c-.19.17-.45.17-.79,0-.34-.44-.64-.8-.91-1.09l-.04-.05c-.34-.37-.83-.38-1.46-.02-.32.47-.35.84-.1,1.12l.67.74c.5.55,1.67.69,3.49.41,1.8-.18,3.24.32,4.31,1.5l.91,1c1.22,1.34,1.32,2.89.32,4.65l-.56.6c-1.14,1.04-2.53,1.13-4.14.26-.16-.06-.37-.19-.61-.4-.05-.05-.27-.33-.67-.82l-.52-.48c-.29-.32.02-.89.92-1.71.48-.3.83-.32,1.05-.08l1.03,1.13c.25.28.65.31,1.2.09l.22-.2c.41-.37.2-1.01-.62-1.91-.79-.87-1.78-1.19-2.96-.97-2.34.24-3.79.05-4.36-.58-.04.03-.28-.12-.73-.46-.15-.23-.28-.4-.39-.52-.05-.06-.1-.08-.13-.05l-.15-.26-.52-.57c-.5-.96-.63-1.92-.41-2.89.26-.72.62-1.29,1.08-1.71Z"/>
  <path class="cls-1" d="M9.12,29.34l.52-.86c.14-.24.24-.36.3-.38.1-.25.2-.45.28-.58l1.1-1.82c.26-.44.55-.57.85-.39l1.11.67c.41.31.53.61.35.91l-1.25,2.07,3.43,2.07c.85-1.23,1.38-1.78,1.61-1.65l1.37.82c.35.21.37.59.06,1.15l-.67,1.11,3.39,2.04c.23-.15.38-.29.45-.41l.46-.76c.11-.18.23-.43.37-.73.32-.37.61-.47.88-.31l.96.58c.52.35.68.7.46,1.05l-2.28,3.78c-.16.27-.45.32-.86.17l-.46-.28c-.21-.13-.42-.28-.63-.45-.15-.04-.29-.1-.43-.19-.03-.02-.12-.1-.27-.23h-.13s-.17-.18-.17-.18c-.07-.05-.27-.14-.59-.29-.39-.28-.6-.43-.63-.45-.08-.05-.22-.11-.43-.19-.37-.27-.73-.51-1.08-.72l-.25-.15c-.18-.11-.34-.18-.49-.22-.15-.14-.31-.26-.47-.35l-.35-.21c-.26-.16-.51-.28-.74-.38-.14-.13-.35-.28-.63-.45l-.1-.06c-.07-.05-.15-.07-.24-.07-.04-.07-.08-.12-.12-.14-.23-.14-.44-.24-.64-.31-.45-.32-.9-.61-1.33-.88-.17-.1-.43-.23-.78-.4-.05-.08-.19-.21-.4-.38-.22-.09-.34-.12-.37-.08l-.27-.23-.74-.38c-.25-.35-.3-.63-.17-.86Z"/>
  <path class="cls-1" d="M31.3,9.28c1.18-.27,2.02-.29,2.52-.06.96.35,1.68,1.06,2.14,2.14l.49,1.13c.1.43,0,.7-.28.83l-1.41.61c-.34.1-.59-.03-.74-.39l-.07-.16c-.07-.15-.09-.32-.08-.48-.52-1.01-1.08-1.38-1.7-1.11-.46.31-.61.65-.45,1.02l3.6,8.36c.31.55.68.73,1.12.54.61-.37.83-.76.65-1.17l-.37-.86c-.06-.13-.15-.29-.27-.47-.09-.48.09-.81.53-1l.92-.4c.49-.15.8-.07.94.24l.46,1.08c.8,1.85.38,3.41-1.24,4.69-.24.15-.45.26-.63.34-1.38.59-2.72.26-4.02-1.01-.15-.16-.32-.47-.52-.93l-.26-.59c-.05-.12-.11-.2-.17-.24l-.08-.35-.28-.65c-.13-.29-.29-.62-.5-1,0-.09,0-.15-.02-.19l-.1-.08c-.05-.21-.1-.39-.16-.51l-.07-.16c-.05-.11-.09-.16-.13-.14l-.06-.29-.54-1.24c-.16-.38-.35-.76-.57-1.16-.04-.2-.12-.42-.22-.66-.05-.12-.2-.42-.45-.89-.3-1.62-.29-2.5.02-2.63.41-1.03,1.06-1.73,1.96-2.12Z"/>
  <path class="cls-1" d="M49.7,17.3l-.64-7.63c-.05-.56-.13-1.04-.24-1.46-.7-1.72-1.91-2.5-3.63-2.36l-.29.02c-.7.06-1.45.48-2.27,1.25-.55.92-.8,1.69-.75,2.31l.13,1.59c.02.24.02.54.01.88.05.12.09.35.12.7l.02.24c0,.09,0,.17-.04.24l.07.12c.02.26.05.87.09,1.83,0,.08.04.29.11.64-.02.2-.03.32-.03.36.08.53.13.86.14.99.01.17.04.76.09,1.77.06.72.46,1.47,1.19,2.27.84.64,1.7.92,2.56.85.52-.04,1.05-.21,1.61-.49,1.32-.78,1.9-2.15,1.73-4.11ZM46.31,19.3h-.06c-.46.04-.8-.3-1.03-1.03l-.72-8.63c-.06-.74.2-1.14.78-1.19.68.11,1.04.36,1.07.74v.05c.03.27.03.5,0,.71.06.2.09.32.09.35.04.94.07,1.59.1,1.95.02.2.08.43.18.69,0,.08-.02.22-.09.42.08.43.13.8.15,1.11v.06c.03.27.03.5,0,.71.06.2.09.4.11.58.06.72.11,1.62.17,2.71-.26.49-.51.75-.77.77Z"/>
  <path class="cls-1" d="M62.48,8.52c-.4-.53-1.03-.98-1.91-1.34-.58-.11-.99-.19-1.21-.25-.35-.09-.84-.24-1.46-.44-.67-.09-1.05.06-1.14.44-.08.49-.14.77-.16.87-.08.31-.16.55-.25.73l-.67,3.04c-.12.15-.21.39-.3.72l-.28,1.08c-.04.14-.1.3-.19.49,0,.09-.09.58-.25,1.46l-.13.27c-.11.44-.21.9-.29,1.38-.23.72-.43,1.42-.6,2.09-.02.09-.04.25-.06.46-.04-.01-.06,0-.07.04-.05.34-.08.54-.09.58-.05.2-.17.57-.35,1.13.06.38.14.6.25.67l2.89.74c.4.1.82.15,1.25.14,1.79-.2,2.92-1.21,3.38-3.02l.41-1.59c.22-.87.19-1.75-.11-2.64.67-.54,1.12-1.29,1.37-2.25l.41-1.59c.31-1.2.16-2.27-.45-3.21ZM58.63,17.59c-.02.08-.06.3-.1.64-.08.29-.16.56-.26.79-.19.75-.5,1.15-.92,1.21l-.74-.19s-.17-.08-.42-.22l.98-3.81.91.23c.41.11.65.45.71,1.03l-.15.33ZM60.43,10.84l-.39,1.53c-.27,1.06-.68,1.52-1.21,1.39-.65-.24-.97-.42-.94-.55l.94-3.65c.02-.07.06-.09.14-.08l.57.15c.75.26,1.05.66.91,1.2Z"/>
  <path class="cls-1" d="M79.46,76.17l-1.13-1.19c-.62-.65-1.39-1.09-2.29-1.3-.1-.85-.5-1.64-1.18-2.36l-1.13-1.19c-.85-.9-1.84-1.34-2.96-1.33-.66.05-1.38.36-2.14.91-.4.44-.69.73-.85.89-.26.25-.65.59-1.15,1.01-.43.52-.51.92-.24,1.2.37.33.58.53.65.59.22.23.38.43.48.6l2.22,2.18c.07.18.22.39.45.63l.76.81c.1.1.2.24.32.42.07.05.44.38,1.1.99l.16.25c.32.33.65.66,1.02.98.49.57.97,1.11,1.45,1.62.07.07.19.17.36.29-.03.03-.03.06,0,.09.27.22.41.35.45.38.14.15.4.45.77.9.35.15.58.2.7.14l2.17-2.06c.3-.29.56-.61.78-.98.78-1.62.53-3.11-.76-4.47ZM73.26,74.69c-.55.43-.87.6-.96.51l-2.59-2.73s-.04-.1,0-.16l.42-.4c.62-.49,1.12-.54,1.5-.13l1.09,1.15c.76.8.93,1.38.53,1.76ZM77.96,79.37l-.56.53s-.16.1-.41.24l-2.71-2.85.68-.65c.31-.29.72-.31,1.24-.05l.2.3c.06.06.22.21.49.43.21.22.38.43.53.64.53.56.71,1.03.54,1.42Z"/>
  <path class="cls-1" d="M22.91,58.24c.14,1.06.11,1.85-.1,2.39-.49,1.03-1.24,1.7-2.25,2.03l-1.4.45c-.4.04-.65-.08-.75-.39l-.45-1.4c-.08-.24.03-.48.33-.72.54-.13.99-.25,1.36-.37l.06-.02c.48-.15.69-.59.63-1.31-.29-.49-.62-.67-.98-.55l-.95.31c-.71.23-1.32,1.23-1.83,3-.58,1.71-1.63,2.81-3.15,3.3l-1.29.41c-1.72.55-3.18,0-4.36-1.64l-.31-.76c-.47-1.47.02-2.77,1.48-3.88.12-.12.33-.25.62-.39.07-.02.41-.11,1.03-.27l.65-.27c.41-.13.8.38,1.17,1.54.07.56-.05.88-.36.99l-1.46.47c-.36.11-.55.47-.58,1.06l.09.28c.17.53.83.6,1.99.23,1.12-.36,1.82-1.12,2.11-2.29.75-2.23,1.53-3.47,2.33-3.73-.01-.04.22-.2.72-.47.27-.04.48-.09.63-.14.08-.02.11-.06.1-.09l.3-.03.73-.23c1.08-.06,2.01.22,2.8.83.55.53.91,1.1,1.1,1.69Z"/>
  <path class="cls-1" d="M26.89,66.19l-.17-.24c-.41-.56-1.16-.99-2.25-1.28-1.07,0-1.86.2-2.36.57l-1.29.94c-.2.14-.44.3-.74.47-.07.1-.25.26-.53.47l-.2.14c-.07.05-.15.08-.22.09l-.06.12c-.21.15-.71.5-1.51,1.03-.06.05-.23.19-.49.43-.19.09-.29.14-.32.16-.41.35-.67.56-.77.64-.14.1-.63.43-1.46.99-.58.43-1.02,1.16-1.32,2.2-.1,1.05.1,1.93.61,2.63.31.42.72.79,1.26,1.12,1.36.72,2.83.5,4.41-.66l6.18-4.53c.45-.33.82-.65,1.12-.97,1.1-1.5,1.14-2.94.12-4.33ZM24.66,68.93l-.04.03c-.22.16-.42.28-.61.37-.14.16-.23.24-.25.26-.78.52-1.32.89-1.61,1.1-.16.12-.33.29-.5.51-.07.05-.2.1-.41.15-.32.29-.61.52-.87.71l-.05.04c-.22.16-.42.28-.61.37-.14.16-.29.29-.44.39-.58.43-1.32.94-2.23,1.55-.55.04-.91-.04-1.06-.25l-.04-.05c-.27-.37-.15-.84.35-1.42l6.99-5.12c.6-.44,1.08-.43,1.42.05.26.64.24,1.08-.07,1.3Z"/>
  <path class="cls-1" d="M34.31,74.17c-.15-.55-.59-1.22-1.32-1.99-.51-.37-1.14-.61-1.89-.71-1-.03-1.91.3-2.75.98l-.45.62-.22.2s.03.07-.02.13c-.1.13-.24.29-.43.49-.24.51-.34.78-.3.81-.5.69-.39,2.15.31,4.39.46,1.11.34,2.14-.35,3.09-.72.98-1.3,1.31-1.74.99l-.24-.17c-.32-.49-.37-.89-.15-1.2l.9-1.24c.19-.27.1-.6-.29-1.01-.98-.72-1.6-.9-1.86-.55l-.37.61c-.4.49-.63.76-.67.82-.15.28-.24.51-.27.68-.52,1.76-.16,3.09,1.09,4l.7.43c1.93.63,3.43.21,4.49-1.25l.8-1.09c.94-1.29,1.14-2.8.6-4.52-.64-1.73-.74-2.9-.3-3.5l.59-.81c.23-.31.6-.35,1.12-.13.48.55.57,1.02.27,1.43l-.04.05c-.23.32-.52.68-.88,1.11-.1.37-.05.63.16.78l1.19.87c.26.19.53.14.83-.13l.87-1.19c.63-.86.83-1.85.62-2.97Z"/>
  <path class="cls-1" d="M42.9,76.87c-.27-.05-.48-.1-.63-.15l-.61-.21c-.41-.14-.94-.35-1.59-.61-.08.02-.16,0-.24-.02-.04-.01-.09-.05-.15-.12-.41-.1-.77-.2-1.07-.31l-.67-.23-.53-.25c-.24-.08-.53.05-.88.38-.09.5-.16.83-.21.98l-.15.26c.01.08.01.14,0,.18l-.1.09c0,.34.18.56.51.68l1.33.46c-.02.44-.05.7-.08.77l-.54,1.56c-.07.2-.18.46-.33.76.02.08,0,.16-.02.24l-.25.53c-.08.22-.17.56-.29,1.02-.48,1.26-.8,2.12-.96,2.59-.16.46-.34,1.05-.54,1.75-.17.37-.34.79-.5,1.25-.06.17-.18.59-.36,1.24-.11.19-.19.35-.23.49.01.29.09.5.22.63l1.56.54c.29.1.54-.02.74-.36l4.18-12.1,1.22.42c.59.2.95.12,1.08-.26l.5-1.44c.09-.26-.05-.52-.42-.76Z"/>
  <path class="cls-1" d="M49.59,77.63l-2.12-.15c-.16-.01-.38,0-.65.02-.04-.04-.19-.07-.47-.09l-1-.07c-.26-.02-.49.16-.69.54v.83s-.08.35-.08.35c.05,0,.08.12.1.36-.06.27-.11.44-.16.53.01.39.01.69,0,.88-.04.51-.09,1.04-.17,1.59.03.2.03.44.01.71,0,.04-.03.1-.07.17.03.08.05.16.04.25v.11c-.03.32-.07.58-.12.76.02.25.02.53,0,.83l-.03.41c-.01.19-.05.38-.1.58.03.15.04.33.02.54l-.02.29c-.03.41-.08.84-.15,1.29.03.22.03.37.03.47,0,.03-.04.28-.11.76.02.35.02.57.01.66l-.08.23.05.12c-.05.2-.08.31-.09.35-.01.16,0,.32.03.47-.06.26-.1.51-.11.76l-.04.53c.05.44.23.66.54.69l4.41.31c.41.03.65-.27.72-.89l.08-1.12c.02-.32-.2-.53-.67-.64-.33.02-.61.02-.82,0l-.89-.06c-.14,0-.33-.08-.57-.21l.28-3.95,1.29.09c.63.02.96-.17.99-.58l.11-1.59c.02-.26-.71-.49-2.2-.68l.28-4,2.41.17c.34.02.56-.22.65-.72l.09-1.3c.02-.35-.22-.54-.73-.58Z"/>
  <path class="cls-1" d="M59.78,76.16c-.23-.23-.51-.3-.83-.22l-1.15.28c-.31.08-.49.36-.52.85.13.41.24.77.31,1.08l.05.23c.17.69.28,1.25.35,1.68.1.26.24.77.42,1.53l.04.18c.08.33.1.58.07.77l.08.09c0,.21.02.34.03.37,0,.04.04.09.1.15l-.1.09h-.06s-3.42-5.41-3.42-5.41c-.25-.58-.71-.8-1.37-.64-.19.09-.3.14-.33.14-.06.01-.33.06-.82.14-.33.08-.49.42-.48,1.03.31.95.53,1.7.67,2.26,0,.04,0,.1-.02.19.05.06.09.13.11.21l.13.52c.05.21.09.48.13.81l.23.43.16,1.18c.16.49.31,1.02.44,1.59.09.35.19.85.3,1.51.06.06.09.12.1.16l-.03.12c.34,1.25.53,1.88.57,1.87l.02.36.54,2.24c.05.19.09.48.15.87.27.28.46.42.59.41l1.54-.37c.3-.07.46-.33.49-.78-.06-.06-.09-.13-.12-.22l-1.56-6.47h.06c.04.14.09.2.16.19.35.6.58.89.7.86,1.07,1.76,1.87,2.99,2.4,3.67.6,1.35,1.12,1.97,1.54,1.87l1.43-.34c.31-.07.45-.31.43-.71l-3.55-14.73Z"/>
  <path class="cls-1" d="M71.33,86.96c-.06-.04-.11-.1-.16-.18l-7.15-13.02c-.11-.21-.69-.03-1.72.54l-.33.25c-.27.15-.02.93.75,2.33.17.23.27.36.28.39,0,.08,0,.14.03.18l.19.23.09.29c.17.23.27.36.28.39.09.16.29.56.6,1.21.23.33.36.53.39.59l.26.72.53.71c0,.08.03.18.09.29.08.14.17.27.28.38l.06.23c.08.14.27.44.56.9.05.09.11.24.18.45l.72,1.08c0,.08.08.3.24.66.13.24.42.73.87,1.47.33.68.55,1.12.66,1.32.29.24.54.3.77.18l1.28-.71c.27-.15.36-.44.26-.88Z"/>
  <path class="cls-1" d="M88.39,68.42l-1.23-.7c-.27-.15-.52-.1-.77.17l-.41.85c-.1.17-.26.41-.49.73,0,.09-.02.15-.04.19-.23.17-.36.28-.38.32l-11.02-6.29c-.32-.18-.61-.1-.88.24-.02.04-.04.1-.04.19-.2.27-.35.49-.46.68l-.06.1c-.21.55-.15.92.18,1.11l.66.38c.12.07.27.18.43.32.24.05.52.16.82.33.39.22.73.44,1.04.66.4.18.9.45,1.51.79l.05.03c.12.07.26.17.43.31.06-.01.19.04.39.15.56.32.99.59,1.29.81.37.16.65.3.85.41.34.19.74.44,1.2.75.58.29,1.02.51,1.3.67.77.49,1.17.74,1.2.75l.49.21c.24.18.52.37.84.55.58.33.96.33,1.16-.01l2.18-3.82c.18-.32.1-.61-.24-.88Z"/>
  <path class="cls-1" d="M91.43,58.41l-1.08-.3c-.3-.09-.56.09-.77.53-.05.33-.1.6-.16.8l-.24.86c-.04.14-.15.31-.32.52l-3.81-1.07.35-1.24c.15-.61.03-.98-.37-1.09l-1.53-.43c-.25-.07-.62.6-1.11,2.02l-3.86-1.08.65-2.32c.09-.33-.1-.59-.58-.78l-1.25-.35c-.34-.09-.57.1-.71.6l-.58,2.05c-.04.16-.08.37-.12.64-.05.03-.11.18-.19.44l-.27.96c-.07.25.06.51.39.78l.81.17.32.15s.14-.05.37-.02c.25.11.41.2.48.26.39.07.67.13.86.18.49.14,1,.3,1.52.49.2.02.44.06.7.13.04.01.09.05.15.1.08-.02.17-.02.25,0l.11.03c.31.09.55.18.72.27.25.03.52.08.81.17l.4.11c.18.05.36.12.55.22.15,0,.33.03.53.09l.28.08c.4.11.81.25,1.24.41.22.02.37.04.46.07.03,0,.27.1.72.27.35.06.56.1.65.12l.21.12.13-.03c.18.09.29.14.32.15.16.04.31.07.46.07.24.11.48.2.72.27l.51.14c.44.04.7-.09.78-.39l1.2-4.26c.11-.4-.13-.69-.73-.89Z"/>
  <circle class="cls-1" cx="12.32" cy="46.95" r="2.71"/>
  <circle class="cls-1" cx="84.74" cy="46.95" r="2.71"/>
  <path class="cls-1" d="M48.95,0C21.92,0,0,21.92,0,48.95s21.92,48.95,48.95,48.95,48.95-21.92,48.95-48.95S75.98,0,48.95,0ZM48.95,95.44c-25.67,0-46.49-20.81-46.49-46.49S23.27,2.46,48.95,2.46s46.49,20.81,46.49,46.49-20.81,46.49-46.49,46.49Z"/>
</svg>